Coordinates
version=1
nRows=17
nColumns=24
inDegrees=yes

Units are S.I. units (second, meters, Newtons, ...)
Angles are in degrees.

endheader
time	pelvis_tilt	pelvis_list	pelvis_rotation	pelvis_tx	pelvis_ty	pelvis_tz	hip_flexion_r	hip_adduction_r	hip_rotation_r	knee_angle_r	ankle_angle_r	subtalar_angle_r	mtp_angle_r	hip_flexion_l	hip_adduction_l	hip_rotation_l	knee_angle_l	ankle_angle_l	subtalar_angle_l	mtp_angle_l	lumbar_extension	lumbar_bending	lumbar_rotation
      0.84683333	      2.40516896	     -2.74131696	     -1.96726660	     -0.52490189	      1.02407022	      0.31756412	      8.07988798	      5.38826276	     -4.26061872	    -10.84435648	     -4.81225577	    -11.55888098	     -4.91995747	     13.28256396	     -8.39604081	     -8.79846373	    -69.21623790	     -1.38008088	    -15.39452580	     -0.98178656	    -14.57450780	      4.17439977	      7.41184247
      0.85100000	      2.38447703	     -2.65973004	     -2.12468787	     -0.51979582	      1.02478308	      0.31812462	      7.69633767	      5.33584003	     -4.14524659	    -10.68296832	     -4.62690594	    -11.41115926	     -4.87908718	     13.87860193	     -8.33047397	     -8.88724894	    -69.04359460	     -1.18504910	    -15.50653435	     -1.16101773	    -14.56478280	      4.02550518	      7.65199671
      0.85516667	      2.39444327	     -2.59818584	     -2.24937709	     -0.51476848	      1.02549501	      0.31859595	      7.27787631	      5.29746322	     -4.04419877	    -10.50250760	     -4.52380117	    -11.36342589	     -4.86387598	     14.44790918	     -8.27232687	     -8.93872851	    -68.83317757	     -0.93608807	    -15.61881597	     -1.22075117	    -14.60650032	      3.91847874	      7.72078608
      0.85933333	      2.39585719	     -2.51852428	     -2.39025405	     -0.50969612	      1.02619803	      0.31906866	      6.86694778	      5.23393370	     -3.95407346	    -10.32473010	     -4.38389875	    -11.22249935	     -4.84097795	     14.99423108	     -8.19540323	     -9.01822734	    -68.53427150	     -0.72341039	    -15.73130357	     -1.30145877	    -14.63232334	      3.78169178	      7.86677587
      0.86350000	      2.43983926	     -2.42652971	     -2.57729098	     -0.50458930	      1.02696756	      0.31964035	      6.40566087	      5.15894445	     -3.83063404	    -10.14356327	     -4.19421102	    -11.02626791	     -4.79115570	     15.45023662	     -8.12364068	     -9.16608829	    -68.13794184	     -0.60289533	    -15.82683427	     -1.47411243	    -14.69317652	      3.61159602	      8.12200915
      0.86766667	      2.52810614	     -2.34294318	     -2.79689100	     -0.49951983	      1.02777790	      0.32029484	      5.89814694	      5.09739710	     -3.65906853	     -9.95744065	     -4.05391787	    -10.92067172	     -4.69088534	     15.83089465	     -8.07607960	     -9.36167033	    -67.68172935	     -0.42769823	    -15.95052811	     -1.81719366	    -14.82518946	      3.43234153	      8.37753686
      0.87183333	      2.51981237	     -2.28178300	     -2.91465275	     -0.49441713	      1.02838112	      0.32068635	      5.48467996	      5.03964338	     -3.62155321	     -9.74955652	     -3.97945527	    -10.79959842	     -4.67053626	     16.34254039	     -8.01270769	     -9.42978880	    -67.20611131	     -0.22755685	    -15.99264241	     -1.87826447	    -14.82854166	      3.32480421	      8.43810496
      0.87600000	      2.52932915	     -2.20206131	     -3.05961689	     -0.48928319	      1.02901072	      0.32109461	      5.05367940	      4.95676955	     -3.57577652	     -9.55223726	     -3.83421410	    -10.58467755	     -4.64125003	     16.79822939	     -7.93304963	     -9.54171524	    -66.64513880	     -0.07614204	    -16.08629319	     -1.95792021	    -14.84699810	      3.18614792	      8.57071321
      0.88016667	      2.65949588	     -2.11202368	     -3.25807757	     -0.48415522	      1.02983704	      0.32161718	      4.48968499	      4.86099142	     -3.48018331	     -9.35122280	     -3.63024543	    -10.34394768	     -4.57231092	     17.06948908	     -7.85976372	     -9.73631831	    -65.97499088	     -0.02879263	    -16.17630463	     -2.14625234	    -15.00793282	      3.02129346	      8.83473354
      0.88433333	      2.72695963	     -2.03061733	     -3.43158542	     -0.47898987	      1.03051935	      0.32210078	      3.98734548	      4.77347577	     -3.41768705	     -9.13350757	     -3.51500180	    -10.15840232	     -4.51420309	     17.40340452	     -7.79417425	     -9.90488082	    -65.27392939	      0.09665106	    -16.21165647	     -2.29826693	    -15.08935193	      2.85053727	      8.98697052
      0.88850000	      2.88103451	     -1.96380014	     -3.63495108	     -0.47386718	      1.03130983	      0.32260963	      3.39090843	      4.69620631	     -3.31394087	     -8.91122719	     -3.39309067	     -9.99526944	     -4.41252157	     17.61070129	     -7.74698346	    -10.11714974	    -64.50327270	      0.22403276	    -16.31306418	     -2.56031987	    -15.28337338	      2.70600804	      9.21809370
      0.89266667	      2.91793319	     -1.89863083	     -3.78860102	     -0.46869605	      1.03185574	      0.32300828	      2.92574153	      4.61645639	     -3.28414012	     -8.70674511	     -3.23639469	     -9.77141075	     -4.35480079	     17.95158970	     -7.68974107	    -10.26764819	    -63.70452431	      0.30415424	    -16.33027107	     -2.69698362	    -15.32605395	      2.56800089	      9.34806236
      0.89683333	      2.92119389	     -1.85544995	     -3.92560591	     -0.46351320	      1.03230234	      0.32334820	      2.48974018	      4.55979299	     -3.26455221	     -8.48124807	     -3.19439046	     -9.61254545	     -4.32942477	     18.31925863	     -7.64868946	    -10.39522035	    -62.87211020	      0.44898879	    -16.34829647	     -2.75813366	    -15.32865705	      2.47225879	      9.44573471
      0.90100000	      3.10410820	     -1.77601212	     -4.15123578	     -0.45834862	      1.03305970	      0.32388052	      1.86541794	      4.45574029	     -3.14862652	     -8.27363174	     -2.96213001	     -9.35894987	     -4.25628160	     18.41703176	     -7.59424008	    -10.65994382	    -61.90391743	      0.44954304	    -16.43995699	     -2.93137100	    -15.54827953	      2.28439099	      9.72533725
      0.90516667	      3.21614852	     -1.71388001	     -4.34244213	     -0.45314991	      1.03364837	      0.32432776	      1.31320362	      4.36981633	     -3.07372520	     -8.05255354	     -2.84609041	     -9.18395746	     -4.18859136	     18.58779950	     -7.54996675	    -10.88311631	    -60.91089410	      0.51784459	    -16.43293053	     -3.09554226	    -15.67386515	      2.13838986	      9.91208428
      0.90933333	      3.29588343	     -1.66475788	     -4.53285503	     -0.44794762	      1.03413662	      0.32473762	      0.80008103	      4.29529796	     -2.99169579	     -7.84177863	     -2.71787187	     -9.00651974	     -4.12596048	     18.77972227	     -7.51671248	    -11.10456719	    -59.87657911	      0.56262184	    -16.46987489	     -3.25028383	    -15.76529286	      2.01444916	     10.10635907
      0.91350000	      3.28405432	     -1.65241413	     -4.67160736	     -0.44272929	      1.03440583	      0.32503418	      0.38583386	      4.26372322	     -2.95980635	     -7.63270582	     -2.67251971	     -8.88000026	     -4.10038708	     19.07971511	     -7.51180002	    -11.25828381	    -58.83278944	      0.63821382	    -16.44958546	     -3.31639628	    -15.73816585	      1.96957029	     10.20633685
